<?xml version="1.0" encoding="utf-8"?>
<!-- Generator: Adobe Illustrator 22.1.0, SVG Export Plug-In . SVG Version: 6.00 Build 0)  -->
<svg version="1.1" id="Layer_1" xmlns="http://www.w3.org/2000/svg" xmlns:xlink="http://www.w3.org/1999/xlink" x="0px" y="0px"
	 viewBox="0 0 155.8 39" style="enable-background:new 0 0 155.8 39;" xml:space="preserve">
<style type="text/css">
	.st0{fill:#020202;}
	.st1{fill:#DDDDDD;}
</style>
<g>
	<path class="st0" d="M43.4,35.2h-9.2l-1.5-16.9l-5.4,16.9h-7.7l-5.4-16.9l-1.5,16.9H3.5L6.5,3h9.2l7.7,19.2L31.1,3h9.2L43.4,35.2z"
		/>
	<path class="st0" d="M46.4,25.3V10.7h9.2v13c0,2.9,1.8,3.8,3.5,3.8c1.6,0,3.5-1.1,3.5-3.8v-13h9.2v24.6h-9.2v-3.1
		c-1.4,2.6-4.1,3.8-6.9,3.8C50.8,36,46.4,32.5,46.4,25.3z"/>
	<path class="st0" d="M152.3,23c0,7.2-5.6,13-13.8,13c-8.6,0-13.8-5.9-13.8-13s5.1-13,13.8-13C146.7,9.9,152.3,15.8,152.3,23z
		 M143.1,23c0-3-2.1-5.4-4.6-5.4s-4.6,2.4-4.6,5.4s2.1,5.4,4.6,5.4S143.1,25.9,143.1,23z"/>
	<path class="st0" d="M112.4,10.7v13c0,2.8-1.9,3.8-3.5,3.8c-1.7,0-3.5-1-3.5-3.8v-13h-5.4v0H87.9l0-7.7h-9.3l0,7.7h-3.1v7.7h3.1
		v9.3c0,5.4,1.9,8.3,7.7,8.3c2.7,0,4.4-0.2,6.1-0.8v-6.9c-4.1,0.7-4.6-0.4-4.6-3.8v-6.1h8.4v6.9c0,7.2,4.4,10.7,9.2,10.7
		c2.8,0,5.5-1.2,6.9-3.8v3.1h9.2V10.7H112.4z"/>
	<path class="st0" d="M146.6,6.8c0-1.1,0.9-2,2-2c1.1,0,2,0.9,2,2s-0.9,2-2,2C147.5,8.8,146.6,7.9,146.6,6.8z M150.3,6.8
		c0-0.9-0.8-1.7-1.7-1.7c-0.9,0-1.7,0.8-1.7,1.7c0,0.9,0.8,1.7,1.7,1.7C149.6,8.5,150.3,7.8,150.3,6.8z M149.1,7.9l-0.5-0.7h-0.3
		v0.7H148V5.8h0.6c0.5,0,0.8,0.3,0.8,0.7c0,0.3-0.2,0.6-0.5,0.7l0.5,0.7H149.1z M148.3,6.9h0.4c0.2,0,0.4-0.1,0.4-0.4
		c0-0.3-0.2-0.4-0.4-0.4h-0.4V6.9z"/>
</g>
</svg>
